<svg version="1" xmlns="http://www.w3.org/2000/svg" width="1472" height="1472" viewBox="0 0 1104.000000 1104.000000"><path style="fill:#00aba9" d="M203.4 368.3L0 571.7v81.4c0 44.8.4 81.8.8 82.4.8 1.2 31.2 1.4 31.2.2 0-.5.6-.5 1.2-.1 1.7 1.1 45.8 1.1 45.8.1 0-.5.5-.5 1.2-.1 1.6 1 13.8 1.1 14.4.2.3-.4 1.5-.4 2.7 0 1.2.4 4.7.6 7.7.5 3-.2 6.3-.3 7.3-.3h24c.6 0 9.6.1 20 .3 10.3.1 18.7-.2 18.7-.6 0-.5.6-.5 1.3 0 1.8 1.1 13 1 14.5-.1.8-.6 1.6-.6 2 0 .8 1.1 31.2 1.2 31.2.1 0-.5.6-.5 1.2-.1 1.7 1.1 27.9 1.2 30.1.2.9-.5 1.7-.5 1.7-.1s7 .8 15.5.8 15.5-.4 15.5-.8c0-.5.6-.5 1.2-.1 1.7 1.1 45.8 1.1 45.8.1 0-.5.5-.5 1.2-.1 1.6 1 13.8 1.1 14.4.2.3-.4 1.5-.4 2.7 0 1.2.4 4.7.6 7.7.5 6.9-.3 6.5-.3 18.8 0 5.6.1 10.2-.2 10.2-.6 0-.5.6-.5 1.2-.1.7.5 4.4.8 8.3.9h7l.2 96c.1 52.8.2 98.6.2 101.7l.1 5.8h202.7V572l-2.1-.1c-11.7-.5-22.3-.3-23.3.4-.7.5-1.3.6-1.3.1 0-1.1-109.1-1.1-110.8 0-.7.4-1.2.4-1.2-.1 0-1.2-26.4-1-27.2.2-.5.7-.8.7-.8 0 0-1.2-8.9-1.3-10.8-.1-.7.4-1.2.4-1.2-.1 0-1-21.1-1-22.8.1-.7.4-1.2.4-1.2-.1 0-1-61.1-.9-62.8.1-.7.4-1.2.4-1.2-.1 0-1.2-26.4-1-27.2.2-.5.7-.8.7-.8 0 0-1.2-8.9-1.3-10.8-.1-.7.4-1.2.4-1.2-.1 0-1-21.1-1-22.8.1-.7.4-1.2.4-1.2-.1 0-.4-16.5-.8-36.7-.7-20.3.1-37.1 0-37.5-.2-.3-.2 3.3-4.1 8.2-8.7 4.8-4.5 8.9-8.7 9-9.2.1-.6 3.7-4.2 8-8 4.3-3.9 7.8-7.2 7.9-7.5.1-.3 82.8-83.4 183.9-184.6 101-101.3 184.6-185.1 185.6-186.3l1.9-2.1H406.8L203.4 368.3zM697.2 265.7c0 55.5.2 101.1.4 101.5.2.4 26.2-25.2 57.7-56.7 31.4-31.6 76.7-77.1 100.6-101 23.9-24 43.6-43.3 43.9-43 .9.9.8 24.5-.1 24.5-.5 0-.5.5-.1 1.1 1 1.7 1.1 22.9.1 22.9-.5 0-.5.5-.1 1.1 1 1.7 1.1 22.9.1 22.9-.5 0-.5.5-.1 1.2 1 1.6 1.1 54.8.1 54.8-.5 0-.5.5-.1 1.1 1 1.7 1.1 22.9.1 22.9-.5 0-.5.5-.1 1.1 1 1.7 1.1 22.9.1 22.9-.5 0-.5.5-.1 1.2 1 1.6 1.1 17.8.2 20.6-.6 1.6-.4 2.1.3 1.6 5.3-3.2-14.7 17.2-102.1 104.5L697.2 571.7v101.1c0 75.2.3 101.2 1.2 101.5 1.7.7 201.6.4 201.7-.2.5-4.3.2-24.1-.4-24.1-.5 0-.5-.5-.1-1.2 1-1.6 1.1-22.8.1-22.8-.5 0-.5-.5-.1-1.2 1-1.6 1.1-22.8.1-22.8-.5 0-.5-.5-.1-1.2 1-1.6 1.1-22.8.1-22.8-.5 0-.5-.5-.1-1.2 1-1.6 1.1-22.8.1-22.8-.5 0-.5-.5-.1-1.2 1-1.6 1.1-30.8.1-30.8-.5 0-.5-.5-.1-1.2 1-1.6 1.1-22.8.1-22.8-.4 0-.4-.8 0-1.8.5-.9.8-6.8.7-13.1l-.1-11.4 52.6-52.4c28.9-28.8 57.2-56.9 62.9-62.5 5.6-5.5 10.3-10.4 10.3-10.7.1-.3 5.4-5.6 11.9-11.6 6.5-6.1 11.8-11.5 11.9-12.2 0-.6.6-1.3 1.1-1.5.6-.2 12.7-11.9 27-26.1l26-25.9V165H697.2v100.7zM1093.3 582.3c-5.6 5.6-51.1 51-101.2 100.9-50.1 49.9-91.1 90.9-91.1 91.1 0 .2 45.7.4 101.5.4H1104V673.3c0-55.7-.1-101.3-.2-101.3-.2 0-4.9 4.6-10.5 10.3z"/></svg>
