<?xml version="1.0" standalone="no"?>
<!DOCTYPE svg PUBLIC "-//W3C//DTD SVG 20010904//EN"
 "http://www.w3.org/TR/2001/REC-SVG-20010904/DTD/svg10.dtd">
<svg version="1.0" xmlns="http://www.w3.org/2000/svg"
 width="111.000000pt" height="79.000000pt" viewBox="0 0 111.000000 79.000000"
 preserveAspectRatio="xMidYMid meet">
<metadata>
Created by potrace 1.11, written by Peter Selinger 2001-2013
</metadata>
<g transform="translate(0.000000,79.000000) scale(0.100000,-0.100000)"
fill="#000000" stroke="none">
<path d="M404 777 c-9 -5 -103 -97 -210 -204 l-195 -195 3 -82 3 -81 185 -2
c102 -1 192 -2 200 -2 13 -1 15 -18 15 -98 l0 -98 102 -3 101 -3 0 185 0 185
-152 0 c-83 0 -173 1 -201 1 l-50 0 203 203 202 202 -96 0 c-52 0 -102 -4
-110 -8z"/>
<path d="M707 780 c-8 -3 -12 -36 -13 -103 l0 -97 97 96 c53 53 99 92 102 88
2 -5 5 -47 5 -94 l0 -85 -101 -103 -102 -102 0 -100 c-1 -55 2 -101 5 -101 31
-7 393 -3 397 4 5 8 11 197 6 197 -1 0 -47 -46 -102 -101 l-101 -101 -1 46
c-1 59 -1 111 0 135 1 11 46 64 102 119 l101 99 2 98 c0 53 -3 99 -7 102 -14
8 -197 9 -197 1 0 -4 -7 -5 -14 -2 -19 7 -163 10 -179 4z"/>
</g>
</svg>
