<?xml version="1.0" encoding="UTF-8" standalone="no"?>
<svg width="4px" height="16px" viewBox="0 0 4 16" version="1.1" xmlns="http://www.w3.org/2000/svg" xmlns:xlink="http://www.w3.org/1999/xlink">
    <!-- Generator: sketchtool 3.6.1 (26313) - http://www.bohemiancoding.com/sketch -->
    <title>Shape</title>
    <desc>Created with sketchtool.</desc>
    <defs></defs>
    <g id="Page-1" stroke="none" stroke-width="1" fill="none" fill-rule="evenodd">
        <g id="04-Dashboard" transform="translate(-304.000000, -933.000000)" fill="#9FACB3">
            <g id="Courses-Progress" transform="translate(50.000000, 820.000000)">
                <g id="Course-Card" transform="translate(43.000000, 90.000000)">
                    <g id="More" transform="translate(211.000000, 23.000000)">
                        <path d="M2,4 C3.1,4 4,3.1 4,2 C4,0.9 3.1,0 2,0 C0.9,0 0,0.9 0,2 C0,3.1 0.9,4 2,4 L2,4 Z M2,6 C0.9,6 0,6.9 0,8 C0,9.1 0.9,10 2,10 C3.1,10 4,9.1 4,8 C4,6.9 3.1,6 2,6 L2,6 Z M2,12 C0.9,12 0,12.9 0,14 C0,15.1 0.9,16 2,16 C3.1,16 4,15.1 4,14 C4,12.9 3.1,12 2,12 L2,12 Z" id="Shape"></path>
                    </g>
                </g>
            </g>
        </g>
    </g>
</svg>